<svg xmlns="http://www.w3.org/2000/svg" xmlns:xlink="http://www.w3.org/1999/xlink" width="180" height="39" viewBox="0 0 180 39">
  <defs>
    <linearGradient id="parcelx-logo-color-a" x1="-25.738%" x2="98.629%" y1="-23.651%" y2="97.698%">
      <stop offset="0%" stop-color="#AB5BF2"/>
      <stop offset="100%" stop-color="#4F56F0"/>
    </linearGradient>
    <linearGradient id="parcelx-logo-color-c" x1="0%" x2="98.629%" y1="0%" y2="97.698%">
      <stop offset="0%" stop-color="#BD5FF4"/>
      <stop offset="100%" stop-color="#3D54EF"/>
    </linearGradient>
    <path id="parcelx-logo-color-b" d="M16.6916376,33.1753247 L19.4526288,35.9430413 L22.2136272,33.1753247 L20.833128,31.7914661 L22.6195056,30.0007428 L28.5473664,35.9430413 L35.8557336,28.6168856 L20.833128,13.5577 L22.6195056,11.7669717 L38.5352928,27.7215178 C39.0285864,28.2160161 39.0285864,29.0177478 38.5352928,29.5122461 L29.4405552,38.6291287 C28.9472616,39.1236238 28.1474712,39.1236238 27.6541776,38.6291287 L23.9999976,34.9660494 L20.3458176,38.6291287 C19.852524,39.1236238 19.0527408,39.1236238 18.5594472,38.6291287 L14.90526,34.9660494 L11.25108,38.6291287 C10.7577864,39.1236238 9.9580032,39.1236238 9.4647096,38.6291287 L0.369970416,29.5122461 C-0.123323472,29.0177478 -0.123323472,28.2160161 0.369970416,27.7215178 L7.19102304,20.8838572 L8.9773992,22.6745856 L3.04953264,28.6168856 L10.3578912,35.9430413 L25.3804968,20.8838572 L27.1668744,22.6745856 L16.6916376,33.1753247 Z M28.5473664,3.05695722 L13.524768,18.1161428 L11.7383904,16.3254144 L27.6541776,0.370868333 C28.1474712,-0.123622778 28.9472616,-0.123622778 29.4405552,0.370868333 L38.5352928,9.48775389 C39.0285864,9.98225222 39.0285864,10.7839839 38.5352928,11.2784822 L31.7142432,18.1161428 L29.9278656,16.3254144 L35.8557336,10.3831144 L28.5473664,3.05695722 Z M3.04953264,10.3831144 L18.0721368,25.4423 L16.2857592,27.2330283 L0.369970416,11.2784822 C-0.123323472,10.7839839 -0.123323472,9.98225222 0.369970416,9.48775389 L9.4647096,0.370868333 C9.9580032,-0.123622778 10.7577864,-0.123622778 11.25108,0.370868333 L18.0721368,7.20853611 L16.2857592,8.99925722 L10.3578912,3.05695722 L3.04953264,10.3831144 Z"/>
  </defs>
  <g fill="none" fill-rule="evenodd">
    <path fill="url(#parcelx-logo-color-a)" d="M54.9473688,27.3164378 L54.9473688,11.7051278 L60.6766032,11.7051278 C64.43568,11.7051278 66.0649608,13.9153156 66.0649608,16.9088617 C66.0649608,20.3315956 63.7967376,21.9732211 60.3890784,21.9732211 L57.971772,21.9732211 L57.971772,27.3164378 L54.9473688,27.3164378 Z M57.971664,19.2372844 L60.0056136,19.2371761 C61.933068,19.2371761 62.8915824,18.2822467 62.8915824,16.8444828 C62.8915824,15.3959939 61.9224192,14.4518978 60.1333992,14.4518978 L57.971664,14.4518978 L57.971664,19.2372844 Z M82.755648,27.3164378 L81.701352,24.1943433 L75.759264,24.1943433 L74.70504,27.3164378 L71.4998016,27.3164378 L77.23944,11.7051278 L80.20008,11.7051278 L85.96116,27.3164378 L82.755648,27.3164378 Z M76.643208,21.5548739 L80.806896,21.5548739 L78.730344,15.4282917 L78.709104,15.4282917 L76.643208,21.5548739 Z M104.17464,27.3164378 L100.543104,27.3162211 L97.071552,21.9730044 L95.293296,21.9730044 L95.293296,27.3162211 L92.269008,27.3162211 L92.269008,11.7049183 L98.12592,11.7049183 C101.863728,11.7049183 103.524912,13.9150989 103.524912,16.908645 C103.524912,19.3979067 102.32172,20.9431806 100.351656,21.6084122 L104.17464,27.3164378 Z M95.293224,14.4516811 L95.29344,19.2478 L97.444512,19.2478 C99.339984,19.2478 100.351656,18.2927622 100.351656,16.8442733 C100.351656,15.3957772 99.361296,14.4516811 97.572096,14.4516811 L95.293224,14.4516811 Z M118.107288,27.4772694 C113.868936,27.4774861 110.216376,24.7094756 110.216376,19.5593883 C110.216376,15.1065128 113.048928,11.5227306 118.107288,11.5227306 C120.236976,11.5227306 122.569128,12.4133894 124.272864,14.516385 L122.026032,16.4477083 C121.120776,15.3531806 119.71512,14.46263 118.107072,14.46263 C115.412904,14.46263 113.4216,16.4368678 113.4216,19.5591717 C113.4216,22.45594 115.338384,24.5482106 118.107216,24.5482106 C119.715192,24.5482106 121.11012,23.7220317 122.026104,22.5739656 L124.272936,24.5160211 C122.941944,26.1900456 120.84408,27.4772694 118.107288,27.4772694 Z M130.900464,27.3164378 L130.900464,11.7052361 L140.803992,11.7052361 L140.803992,14.473355 L133.924752,14.473355 L133.924752,18.2179761 L139.440888,18.2179761 L139.440888,20.9432889 L133.924752,20.9432889 L133.924752,24.5591522 L141.261984,24.5591522 L141.261984,27.3164378 L130.900464,27.3164378 Z M171.829512,23.6347222 L169.383744,27.4292633 L167.236344,27.4292633 L163.654776,27.4292633 L168.728616,19.6266056 L163.804248,11.8772767 L167.32152,11.8772767 L169.46892,11.8772767 L171.831096,15.5858806 L174.186072,11.8772767 L177.69276,11.8772767 L179.840088,11.8772767 L174.937032,19.6158083 L180,27.4292633 L177.8526,27.4292056 L174.260592,27.4291622 L171.829512,23.6347222 Z M148.230288,27.3164378 L148.230288,11.7051278 L151.297344,11.7051278 L151.297344,24.5591522 L158.187024,24.5591522 L158.187024,27.3164378 L148.230288,27.3164378 Z"/>
    <use fill="url(#parcelx-logo-color-c)" xlink:href="#parcelx-logo-color-b"/>
  </g>
</svg>
